<?xml version="1.0"?><svg width="620.373" height="481.187" xmlns="http://www.w3.org/2000/svg">
 <metadata id="metadata7">image/svg+xml</metadata>
 <g>
  <title>Layer 1</title>
  <g id="layer1">
   <path d="m23.418501,154.384003c0,29.002991 25.460798,137.746002 31.846899,162.972992c4.718498,18.639008 11.909801,37.819 20.266102,54.324005c11.025795,21.777008 37.156502,29.187012 57.903496,34.309998c29.983002,7.402008 64.712006,8.576996 95.540009,8.576996c29.018982,0 61.040009,-9.272003 88.876007,-16.144989c6.815979,-1.682007 24.621979,-3.812012 31.377991,-5.718018c26.264984,-7.41098 39.714996,-14.057983 67.932007,-21.023987c19.187988,-4.737 39.261993,-16.928009 55.009003,-28.59201c19.516998,-14.455994 34.825989,-32.513977 49.21701,-51.464996c2.895996,-3.811981 5.790955,-7.623993 8.685974,-11.436005c11.106018,-14.623993 17.370972,-39.124985 17.370972,-57.18399c0,-21.959 2.935059,-38.5 -5.789978,-60.041992c-8.589966,-21.207001 -27.497009,-35.732002 -43.427979,-51.465004c-18.942017,-18.707001 -33.487,-37.889801 -55.883026,-48.948402c-22.838989,-11.277699 -55.888,-11.7262 -81.064972,-20.014099c-31.734009,-10.446499 -70.091003,-13.9533 -103.351013,-13.9533c-25.177002,0 -50.477997,0 -75.274002,0c-25.824997,0 -23.128998,4.034401 -47.865005,8.920101c-17.461998,3.448799 -111.369493,83.169697 -111.369493,116.882702l0,0z" stroke-width="0.814146px" fill-rule="evenodd" fill="#ffd800" id="path3150"/>
   <path d="m424.958008,329.686005a172.763,172.761993 0 1 1 -40.845001,-260.105003" stroke-width="11.3" stroke-miterlimit="0" stroke-linecap="round" stroke-dashoffset="0" stroke="#000000" fill="#ffd800" id="path1307"/>
   <path d="m195.740005,131.367004a128.634003,128.485992 0 1 1 99.016006,210.536987" stroke-width="11.2999" stroke-miterlimit="0" stroke-linecap="round" stroke-dashoffset="0" stroke="#000000" fill="#ffd800" id="path2182"/>
   <path d="m450.833008,139.095993l0.509979,-44.02829c0,0 -0.764984,-8.805603 6.378998,-8.805603c6.889008,0 5.613007,8.805603 5.613007,8.805603l-0.255005,44.02829c0,0 -0.765991,4.403 5.103027,4.662003c5.867981,0.259003 4.846985,-4.92099 4.846985,-4.92099l-0.255005,-43.251305c0,0 -0.509979,-9.323601 5.614014,-9.323601c6.122986,0 4.846985,9.582603 4.846985,9.582603l0,44.2873c0,0 1.914001,3.819992 6.123993,3.625992c4.210022,-0.194992 4.911011,-3.690994 5.039001,-3.593994l0.574005,-44.060402c0,0 0,-9.323502 5.358002,-9.582497c5.358002,-0.259003 5.358002,9.582497 5.358002,9.582497l-0.255005,46.618401c0,0 2.856995,37.662003 -14.587006,40.195007c-15.439972,2.241989 6.09201,133.943985 0.335022,137.862991c-5.446014,3.707001 -6.809021,4.359009 -11.912018,4.618011c-5.102997,0.259003 -10.095001,-1.598022 -13.35498,-5.350006c-6.006012,-6.912994 13.082977,-136.227997 1.537994,-137.900009c-15.042999,-2.179993 -16.875,-43.310989 -16.619995,-43.052002z" stroke-width="5.883" stroke-miterlimit="4" stroke="#000000" fill-rule="evenodd" fill-opacity="0.75" fill="#ffd800" id="path4031"/>
   <path d="m53.9049,111.242996c6.889,-13.208694 20.921997,-15.371895 27.045502,-15.371895c6.123497,0 22.619598,1.473297 27.300598,16.407898c4.740997,15.125 2.601997,84.280006 -14.842201,86.812996c-15.440102,2.242004 6.091805,133.944016 0.335205,137.862991c-5.445602,3.707001 -6.808907,4.359009 -11.911804,4.618011c-5.102898,0.259003 -9.589897,-0.588013 -12.850098,-4.339996c-6.006401,-6.912994 12.578201,-135.722 1.033302,-137.395004c-15.043705,-2.179993 -22.999405,-75.387001 -16.110504,-88.595001z" stroke-width="5.883" stroke-miterlimit="4" stroke="#000000" fill-rule="evenodd" fill-opacity="0.75" fill="#ffd800" id="path8399"/>
   <path d="m81.745201,112.330002a16.920099,33.366901 0 1 1 0.903099,66.483002" stroke-width="5.883" stroke-miterlimit="4" stroke-linecap="round" stroke-dashoffset="0" stroke="#000000" fill="#ffd800" id="path8401"/>
  </g>
 </g>
</svg>