<?xml version="1.0"?><svg width="640" height="480" xmlns="http://www.w3.org/2000/svg">
 <metadata id="metadata7">image/svg+xml</metadata>
 <g>
  <title>Layer 1</title>
  <g id="layer1">
   <path fill="#ff7f00" fill-rule="evenodd" stroke-width="0.81414586px" id="path3150" d="m23.41851,154.384399c0,29.002502 25.460808,137.74588 31.846851,162.972321c4.71851,18.639282 11.909855,37.819336 20.266171,54.324097c11.025749,21.777283 37.15612,29.187683 57.903358,34.309967c29.983246,7.402588 64.71228,8.577484 95.540543,8.577484c29.01889,0 61.039459,-9.2724 88.875366,-16.144836c6.815948,-1.68277 24.622437,-3.812225 31.377838,-5.718323c26.264954,-7.41095 39.715668,-14.057739 67.932739,-21.024292c19.187866,-4.737305 39.26123,-16.928284 55.008179,-28.591614c19.517822,-14.456329 34.82605,-32.514526 49.217896,-51.464966c2.895142,-3.812195 5.790283,-7.62442 8.685486,-11.436646c11.105896,-14.623688 17.371033,-39.124374 17.371033,-57.183258c0,-21.959732 2.935059,-38.500168 -5.790344,-60.042435c-8.589722,-21.207184 -27.49646,-35.732018 -43.427521,-51.464928c-18.942566,-18.706978 -33.487335,-37.889793 -55.883087,-48.94836c-22.839417,-11.277721 -55.887787,-11.726219 -81.064697,-20.01416c-31.733917,-10.446419 -70.090973,-13.953211 -103.351196,-13.953211c-25.177368,0 -50.478348,0 -75.274368,0c-25.824387,0 -23.128738,4.034349 -47.86496,8.920092c-17.461365,3.448818 -111.369286,83.169979 -111.369286,116.883068z"/>
   <path fill="#ff7f00" stroke="#000000" stroke-width="11.3" stroke-linecap="round" stroke-miterlimit="0" stroke-dashoffset="0" d="m424.956665,329.68515a172.762283,172.761429 0 1 1-40.845215,-260.105026" id="path1307"/>
   <path fill="#ff7f00" stroke="#000000" stroke-width="11.299914" stroke-linecap="round" stroke-miterlimit="0" stroke-dashoffset="0" d="m195.739868,131.366943a128.634003,128.486008 0 1 199.015686,210.536499" id="path2182"/>
   <path fill="#ff7f00" fill-opacity="0.75" fill-rule="evenodd" stroke="#000000" stroke-width="5.883" stroke-miterlimit="4" id="path4031" d="m450.832703,139.095779l0.510284,-44.028091c0,0 -0.765442,-8.805618 6.378662,-8.805618c6.888947,0 5.61322,8.805618 5.61322,8.805618l-0.255127,44.028091c0,0 -0.765442,4.402817 5.102905,4.661804c5.868378,0.258987 4.847778,-4.920792 4.847778,-4.920792l-0.255127,-43.251129c0,0 -0.510284,-9.323593 5.61322,-9.323593c6.123505,0 4.847778,9.582588 4.847778,9.582588l0,44.287086c0,0 1.913605,3.820068 6.123505,3.625824c4.20993,-0.194229 4.91156,-3.690582 5.039154,-3.59346l0.574066,-44.060471c0,0 0,-9.323586 5.358063,-9.582581c5.358093,-0.258987 5.358093,9.582581 5.358093,9.582581l-0.255157,46.617981c0,0 2.857025,37.662308 -14.587128,40.195328c-15.440094,2.242035 6.091827,133.944504 0.335205,137.863297c-5.445618,3.707092 -6.808899,4.358368 -11.911835,4.617371c-5.102936,0.258972 -10.09494,-1.597778 -13.355164,-5.349915c-6.006378,-6.912598 13.083313,-136.227417 1.538391,-137.900101c-15.043762,-2.179581 -16.875946,-43.310806 -16.620789,-43.051819z"/>
   <path fill="#ff7f00" fill-opacity="0.75" fill-rule="evenodd" stroke="#000000" stroke-width="5.883" stroke-miterlimit="4" id="path8399" d="m53.904911,111.242722c6.88895,-13.208435 20.922009,-15.371613 27.045521,-15.371613c6.123505,0 22.6194,1.473305 27.300667,16.407562c4.741074,15.125031 2.601868,84.280273 -14.842278,86.813309c-15.440102,2.242035 6.091827,133.944489 0.335197,137.863281c-5.445625,3.707092 -6.808907,4.358368 -11.911842,4.617371c-5.102913,0.259003 -9.589859,-0.587616 -12.850082,-4.339752c-6.006374,-6.912598 12.578247,-135.722336 1.033318,-137.39502c-15.043751,-2.179596 -22.999451,-75.386719 -16.1105,-88.595139z"/>
   <path fill="#ff7f00" stroke="#000000" stroke-width="5.883" stroke-linecap="round" stroke-miterlimit="4" stroke-dashoffset="0" d="m81.745201,112.328957a16.920059,33.366802 0 1 10.903061,66.482933" id="path8401"/>
  </g>
 </g>
</svg>