<?xml version="1.0"?><svg width="1024" height="768" xmlns="http://www.w3.org/2000/svg">
 <title>movie plate</title>
 <metadata id="metadata7">image/svg+xml</metadata>
 <g>
  <title>Layer 1</title>
  <g id="svg_1">
   <path d="m35.4189,244.362c0,49.515991 44.490097,235.17099 55.648102,278.23999c8.244995,31.822998 20.811005,64.567993 35.414001,92.747009c19.264999,37.179016 64.925995,49.830017 101.177994,58.577026c52.391998,12.636963 113.076996,14.642944 166.945007,14.642944c50.707001,0 106.659973,-15.829956 155.299988,-27.563965c11.910034,-2.872009 43.023987,-6.507996 54.828979,-9.762024c45.89502,-12.652954 69.397034,-24.000977 118.703003,-35.893982c33.529053,-8.086975 68.606018,-28.901001 96.122009,-48.815002c34.103027,-24.679993 60.854004,-55.51001 86,-87.86499c5.061035,-6.507996 10.119019,-13.015991 15.17804,-19.524017c19.406006,-24.967987 30.354004,-66.798004 30.354004,-97.629974c0,-37.490021 5.127991,-65.730011 -10.118042,-102.508026c-15.008972,-36.206985 -48.046997,-61.00499 -75.88501,-87.865982c-33.098999,-31.938004 -58.513977,-64.688004 -97.647949,-83.568405c-39.908997,-19.254303 -97.65802,-20.020004 -141.652039,-34.1698c-55.450989,-17.835102 -122.474976,-23.822201 -180.592987,-23.822201c-43.993988,0 -88.20401,0 -131.532013,0c-45.125977,0 -40.414978,6.887897 -83.637985,15.229099c-30.513,5.8881 -194.605103,141.994301 -194.605103,199.552299l0,0l0,0l0,0z" id="path3150" stroke-width="0.814146px" fill-rule="evenodd" fill="#ffffff"/>
   <path id="path1307" d="m737.058044,543.650146c-104.628357,118.776672 -286.055359,136.875671 -413.09317,41.209839c-127.037827,-95.665802 -155.329239,-271.693298 -64.417023,-400.79892c90.912201,-129.105629 269.284607,-166.210155 406.138123,-84.483734" stroke-dashoffset="0" stroke-miterlimit="0" stroke-linecap="round" stroke-width="11.3" stroke="#000000" fill="#ffffff"/>
   <path id="path2182" d="m336.529541,205.064911c66.616302,-78.344177 179.7099,-101.662148 273.104004,-56.309387c93.394104,45.352768 142.541077,147.45578 118.682495,246.563416c-23.858521,99.107605 -114.451599,169.170502 -218.768616,169.191254" stroke-dashoffset="0" stroke-miterlimit="0" stroke-linecap="round" stroke-width="11.29991" stroke="#000000" fill="#ffffff"/>
   <path d="m782.273804,218.26059l0.891113,-75.168228c0,0 -1.336731,-15.034332 11.146545,-15.034332c12.03772,0 9.808044,15.034332 9.808044,15.034332l-0.445618,75.168228c0,0 -1.33844,7.517166 8.916931,7.959351c10.253601,0.4422 8.469543,-8.40152 8.469543,-8.40152l-0.445618,-73.84169c0,0 -0.891113,-15.918701 9.809814,-15.918701c10.699219,0 8.469543,16.360901 8.469543,16.360901l0,75.610428c0,0 3.344543,6.521805 10.700928,6.190582c7.356506,-0.332901 8.58136,-6.301559 8.805054,-6.135956l1.003052,-75.222885c0,0 0,-15.918701 9.362366,-16.360855c9.362549,-0.442215 9.362549,16.360855 9.362549,16.360855l-0.445618,79.590103c0,0 4.992249,64.299683 -25.489075,68.624237c-26.979492,3.827698 10.645081,228.680237 0.585388,235.371094c-9.516174,6.328857 -11.897888,7.442017 -20.814697,7.884216c-8.916931,0.4422 -17.639893,-2.728271 -23.336304,-9.133972c-10.494751,-11.802429 22.860962,-232.579651 2.6875,-235.434265c-26.285828,-3.721863 -29.487061,-73.944092 -29.041443,-73.501923l0,0z" id="path4031" stroke-miterlimit="4" stroke-width="5.883" stroke="#000000" fill-rule="evenodd" fill-opacity="0.75" fill="#ffffff"/>
   <path d="m88.69017,170.707657c12.037697,-22.551498 36.558838,-26.244339 47.258026,-26.244339c10.700943,0 39.525711,2.514832 47.7052,28.013092c8.284317,25.822662 4.546661,143.889771 -25.934616,148.214294c-26.979507,3.827759 10.64505,228.680267 0.585388,235.371063c-9.516235,6.328918 -11.897919,7.442078 -20.814774,7.884277c-8.916885,0.4422 -16.75737,-1.003906 -22.453812,-7.409607c-10.495285,-11.802429 21.978516,-231.71579 1.805038,-234.572083c-26.286339,-3.721863 -40.187965,-128.706894 -28.150452,-151.256699l0,0z" id="path8399" stroke-miterlimit="4" stroke-width="5.883" stroke="#000000" fill-rule="evenodd" fill-opacity="0.75" fill="#ffffff"/>
   <path id="path8401" d="m137.337723,172.561691c11.079315,-2.341568 21.900528,7.521072 27.9888,25.50946c6.088272,17.988388 6.408813,41.045166 0.829071,59.635757c-5.579727,18.590607 -16.111404,29.555298 -27.239883,28.359924" stroke-dashoffset="0" stroke-miterlimit="4" stroke-linecap="round" stroke-width="5.883" stroke="#000000" fill="#ffffff"/>
  </g>
 </g>
</svg>